#!OML:ASF \\Waltz\H\Terrain\Patient Classification 1\Animal2\Wednesday\Animal2.ASF
:FULLY-SPECIFIED
:DEGREES
1468
root 8.14331 17.6884 -8.48485 -713.728 3.83695 -6.75502
lowerback 1.24255 1.08932 8.4942
upperback -5.89519 1.97721 1.67413
thorax -6.68369 0.569706 -3.12408
lowerneck 8.05525 8.63453 16.8798
upperneck -9.15677 12.0871 -18.5427
head -1.73611 6.40349 -8.75852
rclavicle -1.16848e-014 -1.91827e-014
rhumerus 42.1235 29.1555 -28.2647
rradius 59.7225
rwrist -26.1537
rhand -12.7671 21.2275
rfingers 7.12502
rthumb 13.3177 -8.32696
lclavicle -1.16848e-014 -1.91827e-014
lhumerus 13.5285 12.1285 5.50474
lradius 55.1854
lwrist 11.7413
lhand -52.5031 13.3175
lfingers 7.12502
lthumb -24.9897 41.7032
rfemur -0.42998 -13.5163 23.493
rtibia 23.2798
rfoot -21.9256 -16.6414
rtoes 27.269
lfemur -33.66 19.6732 -25.1959
ltibia 38.2182
lfoot -20.9451 14.7416
ltoes -2.26044
1469
root 8.14947 17.6627 -8.38255 -713.801 4.86911 -6.71014
lowerback 1.23265 1.13108 8.37095
upperback -5.96615 2.03006 1.62791
thorax -6.74874 0.597515 -3.10804
lowerneck 7.97661 8.50778 16.946
upperneck -9.05208 11.9131 -18.6769
head -1.71031 6.31902 -8.81038
rclavicle 4.07384e-014 2.9122e-014
rhumerus 42.0532 29.2543 -28.305
rradius 59.6838
rwrist -26.366
rhand -12.6782 21.097
rfingers 7.12502
rthumb 13.4034 -8.45186
lclavicle 4.07384e-014 2.9122e-014
lhumerus 13.4351 12.0258 5.47292
lradius 55.3072
lwrist 11.8776
lhand -52.7293 13.4951
lfingers 7.12502
lthumb -25.2064 41.8505
rfemur -0.12215 -13.8106 23.3689
rtibia 23.9803
rfoot -22.5382 -15.6352
rtoes 29.8445
lfemur -33.7654 19.5093 -25.6382
ltibia 38.4959
lfoot -20.7624 14.8507
ltoes 4.56753
1470
root 8.15522 17.6441 -8.27594 -713.923 5.98032 -6.77669
lowerback 1.27223 1.1494 8.33042
upperback -6.10084 2.06607 1.59379
thorax -6.91311 0.607376 -3.12595
lowerneck 7.8956 8.35707 17.0356
upperneck -8.80281 11.7269 -18.7298
head -1.65014 6.22376 -8.83419
rclavicle -2.1183e-015 2.38542e-015
rhumerus 41.9597 29.462 -28.401
rradius 59.5576
rwrist -26.4062
rhand -12.6491 21.3053
rfingers 7.12502
rthumb 13.4315 -8.24169
lclavicle -2.1183e-015 2.38542e-015
lhumerus 13.3886 11.7336 5.39838
lradius 55.3586
lwrist 12.0299
lhand -52.7796 13.8191
lfingers 7.12502
lthumb -25.2546 42.1677
rfemur -0.0805072 -14.3285 23.3981
rtibia 25.0426
rfoot -22.02 -15.8381
rtoes 29.0193
lfemur -33.6063 19.0077 -25.701
ltibia 38.8431
lfoot -20.8307 14.6396
ltoes 11.2059
1471
root 8.16239 17.6355 -8.16816 -714.041 7.03642 -6.76354
lowerback 1.1883 1.16719 8.10559
upperback -6.0794 2.07176 1.61897
thorax -6.84467 0.627781 -2.97288
lowerneck 7.63985 8.2907 16.938
upperneck -8.66528 11.6008 -18.7442
head -1.5958 6.15486 -8.8069
rclavicle 7.60973e-015 9.49197e-015
rhumerus 42.0699 29.5443 -28.2541
rradius 59.594
rwrist -26.3335
rhand -12.7735 21.1806
rfingers 7.12502
rthumb 13.3115 -8.37429
lclavicle 7.60973e-015 9.49197e-015
lhumerus 13.3514 11.724 5.44203
lradius 55.2986
lwrist 12.0303
lhand -52.7402 13.9931
lfingers 7.12502
lthumb -25.2169 42.347
rfemur -0.34902 -14.9803 23.3294
rtibia 26.433
rfoot -20.4719 -17.3308
rtoes 24.5003
lfemur -33.2706 18.2305 -25.622
ltibia 39.2385
lfoot -20.8813 14.5556
ltoes 13.9977
1472
root 8.17408 17.6111 -8.05915 -714.255 7.99123 -6.70833
lowerback 1.15839 1.18837 7.84586
upperback -5.98507 2.08211 1.65864
thorax -6.72956 0.655912 -2.7864
lowerneck 7.37295 8.27697 16.7368
upperneck -8.59216 11.5295 -18.7408
head -1.55537 6.11479 -8.75703
rclavicle -4.56335e-014 1.10822e-014
rhumerus 42.089 29.6073 -28.2125
rradius 59.758
rwrist -26.0837
rhand -13.0043 21.0909
rfingers 7.12502
rthumb 13.0891 -8.47837
lclavicle -4.56335e-014 1.10822e-014
lhumerus 13.2496 11.8768 5.5748
lradius 55.2555
lwrist 12.0129
lhand -52.8939 14.2568
lfingers 7.12502
lthumb -25.3642 42.5898
rfemur -0.570136 -15.3837 23.1306
rtibia 28.1409
rfoot -19.8835 -18.0669
rtoes 22.2515
lfemur -32.7152 17.2915 -25.3877
ltibia 39.6596
lfoot -20.7793 14.6563
ltoes 12.0061
1473
root 8.18683 17.5747 -7.95199 -714.594 8.99183 -6.66926
lowerback 1.37987 1.17484 7.67055
upperback -5.98557 2.07874 1.64529
thorax -6.86152 0.659093 -2.709
lowerneck 7.34238 8.20642 16.7186
upperneck -8.60551 11.4184 -18.8952
head -1.56418 6.06637 -8.80769
rclavicle 4.3801e-014 4.74598e-014
rhumerus 41.9116 29.8332 -28.4198
rradius 59.88
rwrist -25.7737
rhand -13.0653 21.0525
rfingers 7.12502
rthumb 13.0302 -8.5205
lclavicle 4.3801e-014 4.74598e-014
lhumerus 13.0494 11.8642 5.60313
lradius 55.3077
lwrist 12.0623
lhand -52.9742 14.0571
lfingers 7.12502
lthumb -25.441 42.3793
rfemur -0.709431 -15.674 22.9213
rtibia 30.1653
rfoot -20.2054 -17.8466
rtoes 23.0127
lfemur -32.0417 16.2312 -25.001
ltibia 40.1287
lfoot -20.5907 14.6928
ltoes 6.39784
1474
root 8.2001 17.5377 -7.84193 -714.997 10.0001 -6.55037
lowerback 1.61729 1.1383 7.41819
upperback -5.91549 2.03383 1.59268
thorax -6.93051 0.648586 -2.62704
lowerneck 7.39931 8.13422 16.7496
upperneck -8.79418 11.3037 -19.0789
head -1.63352 6.0198 -8.88879
rclavicle -3.3871e-014 -3.28492e-014
rhumerus 41.9165 30.0083 -28.498
rradius 59.9161
rwrist -25.8714
rhand -12.9439 20.7499
rfingers 7.12502
rthumb 13.1473 -8.81558
lclavicle -3.3871e-014 -3.28492e-014
lhumerus 12.7611 11.8306 5.45462
lradius 55.4108
lwrist 12.1291
lhand -52.6954 12.7936
lfingers 7.12502
lthumb -25.174 41.1535
rfemur -0.939279 -16.0799 22.5813
rtibia 32.4941
rfoot -20.158 -17.3504
rtoes 23.452
lfemur -31.3551 15.2404 -24.68
ltibia 40.6962
lfoot -20.9199 13.8723
ltoes 3.5289
1475
root 8.21418 17.4914 -7.7311 -715.385 10.9423 -6.23381
lowerback 1.87129 1.10494 6.99829
upperback -5.84789 1.97803 1.44682
thorax -7.01225 0.638412 -2.54922
lowerneck 7.47226 8.09681 16.8708
upperneck -8.83464 11.2696 -19.1441
head -1.65182 6.0056 -8.93738
rclavicle -2.23012e-015 1.16786e-014
rhumerus 41.852 30.1736 -28.8433
rradius 59.8594
rwrist -25.9631
rhand -12.922 20.9239
rfingers 7.12502
rthumb 13.1684 -8.64027
lclavicle -2.23012e-015 1.16786e-014
lhumerus 12.5781 11.8406 5.32561
lradius 55.3957
lwrist 12.0393
lhand -52.014 10.8752
lfingers 7.12502
lthumb -24.5209 39.3253
rfemur -1.3725 -16.5371 21.957
rtibia 35.0979
rfoot -19.5172 -17.0822
rtoes 23.1129
lfemur -30.7261 14.5499 -24.6818
ltibia 41.347
lfoot -21.7446 12.6211
ltoes 4.95333
1476
root 8.22868 17.4381 -7.62972 -715.476 11.8988 -5.71239
lowerback 1.97117 1.10061 6.39697
upperback -5.88487 1.93756 1.24424
thorax -7.11713 0.641856 -2.42756
lowerneck 7.4752 8.0194 17.0587
upperneck -8.76437 11.1811 -19.3697
head -1.62146 5.96717 -9.04272
rclavicle -1.35395e-014 -8.6285e-015
rhumerus 41.7096 30.3497 -29.2738
rradius 59.6979
rwrist -25.8112
rhand -12.8025 21.2609
rfingers 7.12502
rthumb 13.2836 -8.29576
lclavicle -1.35395e-014 -8.6285e-015
lhumerus 12.5909 12.0832 5.50717
lradius 55.1386
lwrist 11.5983
lhand -52.6466 11.9046
lfingers 7.12502
lthumb -25.1272 40.2711
rfemur -2.23218 -17.132 21.1372
rtibia 37.9278
rfoot -18.3374 -16.9159
rtoes 23.8262
lfemur -30.52 14.0369 -25.0924
ltibia 42.034
lfoot -22.0947 12.3572
ltoes 3.99239
